<!DOCTYPE svg PUBLIC "-//W3C//DTD SVG 1.1//EN" "http://www.w3.org/Graphics/SVG/1.1/DTD/svg11.dtd">
<!-- Uploaded to: SVG Repo, www.svgrepo.com, Transformed by: SVG Repo Mixer Tools -->
<svg fill="#ffff" height="800px" width="800px" version="1.1" id="Layer_1" xmlns="http://www.w3.org/2000/svg" xmlns:xlink="http://www.w3.org/1999/xlink" viewBox="0 0 512 512" xml:space="preserve" stroke="#ffff">
<g id="SVGRepo_bgCarrier" stroke-width="0"/>
<g id="SVGRepo_tracerCarrier" stroke-linecap="round" stroke-linejoin="round"/>
<g id="SVGRepo_iconCarrier"> <g> <g> <path d="M256,12.785c-141.15,0-256,114.842-256,256c0,97.638,54.477,185.429,142.199,229.086c6.281,3.149,14.029,0.58,17.152-5.76 c3.149-6.323,0.572-14.012-5.751-17.161c-78.95-39.305-128-118.306-128-206.165c0-127.036,103.347-230.4,230.4-230.4 s230.4,103.364,230.4,230.4c0,87.868-49.05,166.869-128,206.165c-6.323,3.149-8.9,10.837-5.751,17.161 c2.227,4.497,6.75,7.1,11.452,7.1c1.929,0,3.874-0.427,5.7-1.34C457.523,454.206,512,366.423,512,268.785 C512,127.626,397.15,12.785,256,12.785z"/> </g> </g> </g>
</svg>